<svg width="139" height="21" viewBox="0 0 139 21" fill="none" xmlns="http://www.w3.org/2000/svg">
<g clip-path="url(#clip0_42_62)">
<path d="M17.7551 0C17.4843 0.480659 17.2411 0.9779 17.0201 1.48619C14.9203 1.17128 12.7817 1.17128 10.6763 1.48619C10.4608 0.9779 10.2121 0.480659 9.94138 0C7.96861 0.337028 6.04557 0.928178 4.22201 1.76242C0.608028 7.11602 -0.370065 12.3315 0.116225 17.4751C2.23266 19.0387 4.6033 20.232 7.12866 20.9945C7.69783 20.232 8.2007 19.4199 8.63172 18.5746C7.81387 18.2707 7.02366 17.8895 6.26661 17.4475C6.46554 17.3039 6.65895 17.1547 6.84683 17.0111C11.2842 19.0995 16.4233 19.0995 20.8662 17.0111C21.0541 17.1658 21.2475 17.3149 21.4464 17.4475C20.6894 17.895 19.8991 18.2707 19.0758 18.5801C19.5068 19.4254 20.0096 20.2376 20.5788 21C23.1041 20.2376 25.4748 19.0497 27.5914 17.4862C28.1659 11.5193 26.6077 6.34806 23.4743 1.76796C21.6564 0.933712 19.7334 0.342541 17.7606 0.0110469L17.7551 0ZM9.25062 14.3094C7.88573 14.3094 6.7529 13.0718 6.7529 11.5414C6.7529 10.0111 7.84151 8.76796 9.24511 8.76796C10.6487 8.76796 11.7649 10.0166 11.7428 11.5414C11.7207 13.0663 10.6432 14.3094 9.25062 14.3094ZM18.4569 14.3094C17.0864 14.3094 15.9647 13.0718 15.9647 11.5414C15.9647 10.0111 17.0533 8.76796 18.4569 8.76796C19.8605 8.76796 20.9712 10.0166 20.9491 11.5414C20.927 13.0663 19.8494 14.3094 18.4569 14.3094ZM36.941 2.91252H45.1886C47.1765 2.91252 48.8583 3.22263 50.2339 3.84285C51.5004 4.3752 52.5758 5.27877 53.3184 6.43444C54.0136 7.5761 54.3698 8.89184 54.3456 10.2282C54.3608 11.5707 53.9907 12.8894 53.2791 14.028C52.4853 15.2308 51.3502 16.169 50.0193 16.7223C48.5611 17.3868 46.7535 17.7181 44.5965 17.716H36.941L36.941 2.91252ZM44.5119 13.9495C45.8512 13.9495 46.8804 13.6152 47.5994 12.9467C48.337 12.2315 48.6826 11.2574 48.678 10.2071C48.6819 9.23462 48.376 8.32757 47.7173 7.63963C47.0728 6.99928 46.103 6.67809 44.8079 6.67607H42.2279V13.9495H44.5119ZM66.6959 17.6919C65.6078 17.4193 64.5669 16.9845 63.6083 16.4021V12.8923C64.4452 13.5009 65.3876 13.9495 66.3877 14.2153C67.4818 14.5491 68.6184 14.723 69.7623 14.7318C70.1571 14.7529 70.5515 14.6847 70.9164 14.5325C71.1762 14.3995 71.3061 14.2304 71.3061 14.0552C71.3117 13.8574 71.2351 13.666 71.0946 13.5266C70.8533 13.3411 70.5701 13.2176 70.2698 13.1672L67.7321 12.5963C66.2779 12.258 65.2457 11.7898 64.6355 11.1918C64.0161 10.5672 63.6873 9.71134 63.7292 8.83275C63.719 8.04523 64.0059 7.28276 64.5328 6.69725C65.1574 6.03658 65.9452 5.55214 66.8167 5.29272C67.9383 4.94027 69.1095 4.77197 70.2849 4.79434C71.3822 4.78404 72.4764 4.9119 73.5417 5.17492C74.4022 5.37876 75.2285 5.70638 75.9948 6.14753V9.47008C75.2761 9.05321 74.5036 8.73714 73.6988 8.5307C72.8268 8.29695 71.9278 8.17915 71.0251 8.18033C69.6999 8.18033 69.0372 8.40586 69.0372 8.85693C69.0327 9.06229 69.1517 9.25035 69.3393 9.33417C69.7014 9.48808 70.0808 9.59763 70.4692 9.66039L72.584 10.041C73.9576 10.2826 74.9817 10.7055 75.6564 11.3096C76.3312 11.9137 76.6695 12.7977 76.6715 13.9616C76.6934 15.207 76.0529 16.3706 74.9888 17.0184C73.875 17.7654 72.2849 18.138 70.2185 18.136C69.0302 18.1378 67.8465 17.9885 66.6959 17.6919ZM81.6684 17.2479C80.5378 16.7285 79.5849 15.8881 78.9283 14.8315C78.3158 13.7952 78.0021 12.6097 78.022 11.4062C78.0037 10.2034 78.3343 9.02112 78.9736 8.00209C79.6551 6.962 80.6252 6.14324 81.7651 5.64609C83.1511 5.0423 84.6525 4.7495 86.1638 4.78826C88.2786 4.78826 90.0339 5.23228 91.4296 6.1203V9.99561C90.8986 9.63872 90.3186 9.36095 89.7076 9.17101C89.0236 8.95514 88.31 8.84811 87.5928 8.85386C86.2817 8.85386 85.2555 9.09348 84.5143 9.57274C83.4726 10.154 83.0994 11.4696 83.6808 12.5111C83.8703 12.8504 84.1478 13.1324 84.4841 13.3272C85.2031 13.8125 86.2464 14.0552 87.614 14.0552C88.3199 14.0569 89.0222 13.9551 89.6985 13.7531C90.3154 13.5763 90.9081 13.3236 91.4628 13.001V16.7465C89.8281 17.6993 87.962 18.1823 86.0702 18.1419C84.5539 18.1833 83.0483 17.8775 81.6684 17.2479ZM96.6955 17.2479C95.5522 16.7259 94.5824 15.8874 93.9009 14.8315C93.2588 13.7977 92.9255 12.6019 92.9402 11.3851C92.9197 10.1826 93.2539 9.00075 93.9009 7.98698C94.586 6.95793 95.5516 6.14663 96.6834 5.64911C99.4635 4.52139 102.574 4.52139 105.354 5.64911C106.481 6.14285 107.443 6.95017 108.124 7.9749C108.767 8.99242 109.098 10.1758 109.076 11.379C109.091 12.5947 108.761 13.7896 108.124 14.8254C107.45 15.882 106.485 16.7212 105.345 17.2418C102.583 18.4259 99.457 18.4259 96.6955 17.2418L96.6955 17.2479ZM103.121 13.4964C103.649 12.9513 103.929 12.2126 103.895 11.4545C103.932 10.7032 103.651 9.97104 103.121 9.43683C102.547 8.91041 101.784 8.63907 101.007 8.68472C100.23 8.64386 99.4684 8.91459 98.8918 9.43683C98.3642 9.97216 98.0848 10.7039 98.1214 11.4545C98.0872 12.212 98.3657 12.9503 98.8918 13.4964C99.463 14.0294 100.226 14.3074 101.007 14.2666C101.788 14.312 102.553 14.0334 103.121 13.4964ZM121.786 5.57058V10.1436C121.154 9.76697 120.427 9.58322 119.692 9.61505C118.565 9.61505 117.695 9.95938 117.091 10.642C116.487 11.3246 116.185 12.3848 116.185 13.8226V17.713H111.003V5.34404H116.079V9.27071C116.361 7.83296 116.816 6.77274 117.444 6.09011C118.061 5.41076 118.956 5.05382 119.861 5.06314C120.532 5.06172 121.206 5.2208 121.786 5.57058ZM139 2.48966V17.713H133.819V14.9342C133.428 15.9234 132.726 16.7589 131.819 17.3143C130.817 17.8848 129.678 18.169 128.526 18.1359C127.442 18.1611 126.374 17.8636 125.459 17.2811C124.573 16.7057 123.868 15.8923 123.423 14.9342C122.938 13.8765 122.697 12.7236 122.716 11.5602C122.682 10.3541 122.939 9.1574 123.465 8.07155C123.949 7.07696 124.704 6.23932 125.644 5.65515C126.609 5.0703 127.72 4.76982 128.849 4.78826C131.314 4.78826 132.971 5.85955 133.819 8.00209V2.48966H139ZM133.057 13.4239C133.591 12.8985 133.88 12.1728 133.852 11.4243C133.875 10.698 133.586 9.99661 133.057 9.49725C131.836 8.50264 130.083 8.50264 128.861 9.49725C128.335 10.008 128.05 10.7186 128.079 11.4515C128.052 12.1913 128.339 12.9078 128.87 13.4239C129.431 13.9451 130.178 14.2183 130.943 14.1821C131.721 14.225 132.484 13.9516 133.057 13.4239ZM58.7141 2.02149C60.1407 2.02149 61.2971 3.06007 61.2971 4.34125C61.2971 5.62242 60.1407 6.661 58.7141 6.661C57.2875 6.661 56.131 5.62242 56.131 4.34125C56.131 3.06007 57.2875 2.02149 58.7141 2.02149ZM56.128 8.25884C57.781 8.95344 59.6441 8.95344 61.2971 8.25884V17.7795H56.128V8.25884Z" fill="white"/>
</g>
<defs>
<clipPath id="clip0_42_62">
<rect width="139" height="21" fill="white"/>
</clipPath>
</defs>
</svg>
