<svg width="120" height="33" viewBox="0 0 120 33" fill="none" xmlns="http://www.w3.org/2000/svg">
<path d="M56.024 26H46.16V8.864H56.024V11.84H49.784V15.608H55.592V18.584H49.784V23H56.024V26ZM66.8377 26L62.7097 12.56H62.6137C62.6297 12.88 62.6537 13.36 62.6857 14C62.7177 14.64 62.7497 15.328 62.7817 16.064C62.8137 16.784 62.8297 17.44 62.8297 18.032V26H59.5897V8.864H64.5337L68.5897 21.968H68.6617L72.9577 8.864H77.9017V26H74.5177V17.888C74.5177 17.344 74.5257 16.72 74.5417 16.016C74.5737 15.312 74.5977 14.648 74.6137 14.024C74.6457 13.384 74.6697 12.904 74.6857 12.584H74.5897L70.1737 26H66.8377ZM92.7183 26L91.4703 21.92H85.2303L83.9823 26H80.0703L86.1183 8.792H90.5583L96.6303 26H92.7183ZM89.3583 14.888C89.2783 14.616 89.1743 14.272 89.0463 13.856C88.9183 13.44 88.7903 13.016 88.6623 12.584C88.5343 12.152 88.4303 11.776 88.3503 11.456C88.2703 11.776 88.1583 12.176 88.0143 12.656C87.8863 13.12 87.7583 13.568 87.6303 14C87.5183 14.416 87.4303 14.712 87.3663 14.888L86.1423 18.872H90.6063L89.3583 14.888ZM105.209 26H97.4086V23.936L99.4966 22.976V11.888L97.4086 10.928V8.864H105.209V10.928L103.121 11.888V22.976L105.209 23.936V26ZM108.129 26V8.864H111.753V23H118.713V26H108.129Z" fill="white"/>
<path d="M33.9531 28.2188C33.5625 28.5487 33.0591 28.7499 32.5117 28.75H2.49121C1.94381 28.7499 1.4419 28.5502 1.05176 28.2217L13.1387 18.1738L14.8418 19.5898C15.5879 20.2095 16.5577 20.5132 17.5166 20.5078C18.4131 20.5028 19.3223 20.2309 20.0508 19.6826L20.1943 19.5693L21.8711 18.1729L33.9531 28.2188ZM11.7266 17L0.250977 26.541C0.250904 26.5339 0.250001 26.5267 0.25 26.5195V7.4834C0.25 7.47507 0.250883 7.46631 0.250977 7.45801L11.7266 17ZM34.75 7.4834V26.5176C34.75 26.5228 34.7491 26.528 34.749 26.5332L23.2822 17L34.749 7.46582C34.7491 7.47157 34.75 7.47764 34.75 7.4834ZM2.49023 5.25H32.5098C33.0587 5.25001 33.5626 5.45041 33.9531 5.78125L21.3047 16.2979L21.2969 16.3057L21.2773 16.3223L19.0381 18.1826V18.1836C18.63 18.5238 18.0756 18.7019 17.5088 18.7051C16.9435 18.7082 16.3952 18.5363 15.9971 18.2041V18.2031L13.7236 16.3135L13.7217 16.3125L13.7031 16.2969L1.05176 5.77637C1.44167 5.4477 1.94428 5.25 2.49023 5.25Z" fill="white" stroke="black" stroke-width="0.5"/>
</svg>
