<svg width="97" height="24" viewBox="0 0 97 24" fill="none" xmlns="http://www.w3.org/2000/svg">
<g clip-path="url(#clip0_42_56)">
<path d="M32.221 21.0075V8.56047H36.5791V21.0075H32.221ZM34.4262 7.54825C33.691 7.54825 33.1222 7.37114 32.7197 7.01693C32.3346 6.66279 32.1421 6.19054 32.1421 5.60018C32.1421 5.0436 32.3346 4.57135 32.7196 4.18344C33.1222 3.79552 33.691 3.60156 34.4261 3.60156C35.1612 3.60156 35.7213 3.79552 36.1065 4.18344C36.509 4.57135 36.7103 5.0436 36.7103 5.60018C36.7103 6.19054 36.509 6.66279 36.1065 7.01693C35.7214 7.37114 35.1614 7.54825 34.4263 7.54825H34.4262ZM43.0818 21.2609C41.8215 21.2609 40.8675 20.9403 40.2198 20.2993C39.5898 19.6416 39.2748 18.7309 39.2748 17.567V11.6723H37.5421V8.56023H39.2748V5.5243H43.6329V8.56047H46.4687V11.6719H43.6327V16.9596C43.6327 17.3476 43.7115 17.6259 43.8691 17.7945C44.0441 17.9463 44.3066 18.0222 44.6566 18.0222C45.1292 18.0222 45.6456 17.8198 46.2056 17.415L47.2034 20.1728C46.696 20.5106 46.1184 20.7804 45.4707 20.9823C44.823 21.1681 44.0268 21.261 43.0819 21.261L43.0818 21.2609ZM53.8012 21.2609C51.8058 21.2609 50.2305 20.7127 49.0754 19.6165C47.9378 18.52 47.3689 16.9261 47.3689 14.8347C47.3689 13.3167 47.6927 12.0433 48.3402 11.0144C49.0054 9.95192 49.8372 9.23508 50.8354 8.86389C51.8854 8.47598 52.8569 8.28202 53.75 8.28202C54.8701 8.28202 55.8066 8.50127 56.5594 8.93978C57.3123 9.36148 57.8636 9.82532 58.2133 10.3313C58.5814 10.8372 58.8439 11.2336 59.0008 11.5204L55.9823 13.3926C55.7027 12.836 55.3963 12.3974 55.0633 12.0769C54.7311 11.7565 54.3288 11.5963 53.8564 11.5963C53.1912 11.5963 52.6662 11.8492 52.2814 12.3551C51.8967 12.8612 51.7043 13.6287 51.7043 14.6575C51.7043 15.7707 51.9317 16.5887 52.3866 17.1115C52.8415 17.6344 53.4892 17.8959 54.3297 17.8959C54.9949 17.8959 55.5462 17.7777 55.9835 17.5412C56.4384 17.3048 56.8673 17.0011 57.2702 16.6303L58.6617 19.7671C58.2416 20.1041 57.6202 20.4416 56.7975 20.7794C55.9749 21.0995 54.9773 21.2595 53.8046 21.2595L53.8012 21.2609ZM60.1424 21.0075V4.10743H64.5268V9.24332C64.8943 8.99029 65.3406 8.77104 65.8657 8.58556C66.3907 8.38312 67.0209 8.2819 67.7562 8.2819C69.2964 8.2819 70.4428 8.70376 71.1954 9.54747C71.9655 10.3912 72.3506 11.5804 72.3506 13.115V21.0088H67.9661V13.6205C67.9661 12.9127 67.8263 12.3983 67.5467 12.0774C67.2671 11.7404 66.8995 11.5719 66.4437 11.5719C66.059 11.5719 65.7001 11.6564 65.367 11.8253C65.0349 11.9942 64.7548 12.1715 64.527 12.3573V21.01H60.1426L60.1424 21.0075ZM75.717 21.2609C75.0167 21.2609 74.4653 21.0669 74.0629 20.679C73.6603 20.2911 73.459 19.7935 73.459 19.1864C73.459 18.5791 73.6603 18.0731 74.0629 17.6684C74.4654 17.2636 75.0167 17.0612 75.7167 17.0612C76.3819 17.0612 76.9158 17.2636 77.3184 17.6684C77.7215 18.0732 77.9231 18.5792 77.9231 19.1864C77.9231 19.7936 77.7219 20.2911 77.3196 20.679C76.9349 21.0669 76.4011 21.2609 75.7183 21.2609H75.717ZM78.9408 21.0075V8.56047H83.2989V21.0075H78.9408ZM81.1455 7.55066C80.4102 7.55066 79.8413 7.37355 79.4388 7.01934C79.0538 6.66512 78.8613 6.19287 78.8613 5.60259C78.8613 5.04601 79.0538 4.57377 79.4388 4.18585C79.8414 3.79793 80.4102 3.60398 81.1453 3.60398C81.8804 3.60398 82.4406 3.79793 82.8257 4.18585C83.2282 4.57377 83.4295 5.04601 83.4295 5.60259C83.4295 6.19295 83.2282 6.6652 82.8257 7.01934C82.4407 7.37355 81.8806 7.55066 81.1455 7.55066ZM90.9948 21.2609C89.9795 21.2609 89.0781 21.1006 88.2905 20.7802C87.5029 20.4429 86.829 19.9875 86.269 19.414C85.7265 18.8237 85.3064 18.1321 85.0087 17.3394C84.7287 16.5298 84.5887 15.6527 84.5887 14.7081C84.5887 13.3083 84.9038 12.0855 85.5339 11.0397C86.1815 10.0109 86.9866 9.29404 87.9492 8.88923C88.9294 8.48442 89.9445 8.28202 90.9947 8.28202C92.4995 8.28202 93.7419 8.61934 94.7218 9.294C95.7192 9.96865 96.4195 10.812 96.8226 11.8239C97.2249 12.8359 97.426 13.7973 97.426 14.7081C97.426 15.6526 97.2771 16.5297 96.9791 17.3394C96.6995 18.132 96.2792 18.8235 95.7184 19.4139C95.1758 19.9874 94.5019 20.443 93.6964 20.7808C92.9089 21.1017 92.0075 21.2622 90.9922 21.2622L90.9948 21.2609ZM90.9948 18.0225C91.7299 18.0225 92.2636 17.7273 92.5961 17.1369C92.9287 16.5297 93.095 15.7202 93.095 14.7083C93.095 13.7469 92.9199 12.9794 92.5699 12.4059C92.2202 11.8325 91.6952 11.5457 90.9949 11.5457C90.3122 11.5457 89.7959 11.8325 89.4462 12.4059C89.0965 12.9794 88.9216 13.7468 88.9216 14.7082C88.9216 15.7202 89.0882 16.5297 89.4212 17.1368C89.7717 17.7272 90.2967 18.0224 90.9962 18.0224L90.9948 18.0225Z" fill="white"/>
<path d="M3.60966 0.148402C2.40226 0.839217 0.0232741 3.47303 0.000488281 4.16372V5.3072C0.000488281 6.75664 1.40645 8.03041 2.6827 8.03041C4.21511 8.03041 5.49212 6.80634 5.49237 5.35365C5.49237 6.80622 6.72556 8.03041 8.25834 8.03041C9.791 8.03041 10.9846 6.80634 10.9846 5.35365C10.9846 6.80622 12.2954 8.03041 13.8279 8.03041H13.8554C15.3878 8.03041 16.6999 6.80634 16.6999 5.35365C16.6999 6.80622 17.893 8.03041 19.4254 8.03041C20.9578 8.03041 22.191 6.80634 22.191 5.35365C22.191 6.80622 23.468 8.03041 25.0004 8.03041C26.2762 8.03041 27.6821 6.75676 27.6821 5.3072V4.16372C27.6583 3.47303 25.2796 0.839217 24.0727 0.148402C20.3206 0.021362 17.7177 -0.000474858 13.8404 7.72396e-06C9.9644 0.000249015 4.67734 0.0585208 3.60941 0.148402H3.60966ZM10.9654 7.3478C10.8194 7.59464 10.6365 7.81868 10.426 8.0169C9.84759 8.56222 9.05435 8.90002 8.17997 8.90002C7.30547 8.90002 6.50784 8.56222 5.92943 8.01666C5.72036 7.8188 5.56136 7.60719 5.41487 7.36083V7.36131C5.26965 7.60815 5.06558 7.81952 4.8565 8.01762C4.27809 8.56294 3.48058 8.90039 2.60671 8.90039C2.50154 8.90039 2.39262 8.87264 2.30373 8.84368C2.18079 10.0803 2.12846 11.2614 2.11031 12.124V12.1289C2.1078 12.5668 2.10592 12.9263 2.10354 13.4258C2.12733 16.0209 1.83688 21.8348 3.29041 23.2632C5.5427 23.7699 9.68722 24.0004 13.8458 24.0016H13.8461C18.0044 24.0004 22.1492 23.7699 24.4015 23.2644C25.855 21.8356 25.5646 16.0217 25.5883 13.4275C25.5862 12.928 25.5841 12.5682 25.5817 12.1305V12.1257C25.5629 11.2641 25.511 10.0826 25.3876 8.84622C25.2988 8.87517 25.189 8.90328 25.0834 8.90328C24.2095 8.90328 23.4115 8.56583 22.833 8.02064C22.6233 7.8223 22.4199 7.61093 22.2743 7.36433L22.2736 7.3636C22.1276 7.60972 21.9685 7.82169 21.7588 8.01943C21.1804 8.56499 20.3829 8.9028 19.5087 8.9028C18.6344 8.9028 17.841 8.56499 17.2626 8.01967C17.0523 7.82133 16.8695 7.59741 16.723 7.35045C16.5774 7.59657 16.3988 7.82182 16.1889 8.01955C15.6105 8.56487 14.813 8.90268 13.9379 8.90268C13.9074 8.90268 13.8766 8.90147 13.8465 8.90026H13.8455C13.8151 8.90147 13.7847 8.90268 13.7541 8.90268C12.8795 8.90268 12.0819 8.56487 11.5033 8.01955C11.2932 7.82169 11.1145 7.59693 10.9687 7.35069L10.9654 7.3478ZM8.65397 10.228L8.65372 10.2289H8.65622C9.57141 10.2309 10.3852 10.2289 11.3918 11.2886C12.1855 11.2086 13.0131 11.1684 13.8431 11.1697H13.8444C14.6744 11.1685 15.502 11.2095 16.2957 11.2892C17.3036 10.2299 18.1161 10.2323 19.0313 10.2299H19.0338V10.2287C19.4667 10.2287 21.1959 10.2287 22.4016 13.4909L23.697 17.9669C24.6566 21.2967 23.3899 21.3787 21.8099 21.3812C19.4662 21.2979 18.1692 19.6571 18.1692 18.0176C16.8721 18.2227 15.3585 18.3252 13.8455 18.3252H13.8449C12.3317 18.3252 10.8186 18.2227 9.52183 18.0176C9.52183 19.6571 8.22479 21.2967 5.88136 21.3812C4.30137 21.3787 3.03438 21.2967 3.99427 17.9681L5.2888 13.4922C6.49445 10.2299 8.22467 10.2299 8.6566 10.2299L8.65397 10.228ZM13.8421 12.7917V12.7925C13.84 12.7946 11.3755 14.9757 10.9325 15.7515L12.5463 15.6892V17.0453C12.5463 17.1089 13.1941 17.083 13.8421 17.0542H13.843C14.4911 17.0832 15.1388 17.1089 15.1388 17.0454V15.6893L16.7526 15.7514C16.3096 14.9756 13.843 12.7925 13.843 12.7925V12.7918L13.8427 12.792L13.8421 12.7917Z" fill="white"/>
</g>
<defs>
<clipPath id="clip0_42_56">
<rect width="97" height="24" fill="white"/>
</clipPath>
</defs>
</svg>
