<svg width="400" height="200" viewBox="0 0 400 200" fill="none" xmlns="http://www.w3.org/2000/svg">
<path d="M178.551 82.2958C181.331 82.45 183.803 83.1825 185.965 84.4934C187.819 85.5729 189.518 87.3079 191.062 89.6983C192.684 92.0887 193.495 95.4816 193.495 99.8769C193.495 103.193 193.456 106.354 193.379 109.361C193.302 112.292 193.379 114.913 193.611 117.227C193.842 119.463 194.267 121.275 194.885 122.663C195.58 123.974 196.623 124.629 198.013 124.629C199.403 124.629 200.407 123.974 201.025 122.663C201.72 121.275 202.183 119.463 202.415 117.227C202.647 114.913 202.724 112.292 202.647 109.361C202.569 106.354 202.492 103.193 202.415 99.8769C202.338 97.7178 202.492 95.8286 202.878 94.2093C203.342 92.5128 203.96 91.0478 204.732 89.814C205.504 88.5802 206.354 87.5778 207.281 86.8067C208.285 85.9585 209.289 85.3031 210.293 84.8404C212.687 83.6837 215.428 83.1054 218.518 83.1054C222.456 82.8741 225.623 83.4139 228.017 84.7247C230.488 86.0356 232.419 87.5007 233.809 89.12C235.354 91.1249 236.512 93.3611 237.284 95.8286C238.597 101.689 239.254 107.357 239.254 112.831C239.331 118.229 239.099 123.048 238.559 127.289C237.941 132.224 237.053 136.89 235.894 141.285C234.272 145.989 231.878 150.191 228.712 153.892C227.322 155.435 225.7 156.977 223.846 158.519C222.07 159.984 219.946 161.295 217.475 162.452C215.081 163.608 212.339 164.534 209.25 165.228C206.238 165.922 202.878 166.269 199.171 166.269C196.005 166.269 193.109 165.999 190.483 165.459C187.934 164.996 185.579 164.379 183.416 163.608C181.254 162.837 179.323 161.95 177.624 160.948C175.925 159.946 174.419 158.943 173.106 157.941C170.017 155.55 167.584 152.851 165.808 149.844C164.341 147.377 163.143 144.793 162.217 142.095C161.29 139.319 160.518 136.543 159.9 133.767C159.359 130.914 158.934 128.138 158.626 125.439C158.394 122.663 158.278 120.003 158.278 117.458C158.201 111.52 158.587 105.66 159.436 99.8769C160.363 95.0189 161.869 91.3947 163.954 89.0043C166.04 86.5368 168.163 84.8018 170.326 83.7994C172.874 82.6428 175.616 82.1415 178.551 82.2958Z" fill="white"/>
<path fill-rule="evenodd" clip-rule="evenodd" d="M92.5877 121.856C113.347 129.412 136.3 118.708 143.856 97.9493C151.412 77.1902 140.708 54.2365 119.949 46.6808C99.1902 39.1251 76.2365 49.8286 68.6808 70.5877C61.1251 91.3468 71.8286 114.301 92.5877 121.856ZM114.378 73.851C112.639 74.6961 110.889 76.0301 109.129 77.853C108.751 75.3751 108.122 73.2523 107.243 71.4847C106.876 70.7352 106.417 70.0293 105.866 69.3668C105.341 68.7141 104.714 68.1778 103.983 67.7579C103.29 67.3206 102.486 67.059 101.573 66.973C100.66 66.887 99.6307 67.0359 98.4857 67.4198C97.2302 67.8559 96.2437 68.3899 95.5263 69.0219C94.8456 69.6364 94.3533 70.3195 94.0493 71.0711C93.7452 71.8227 93.5991 72.6009 93.6107 73.4059C93.6493 74.2206 93.7835 75.0239 94.0131 75.8158C94.5279 77.666 95.5381 79.6197 97.0438 81.6767C94.8004 82.3999 92.9491 83.3428 91.4901 84.5055C90.8589 84.9841 90.2752 85.5415 89.739 86.1778C89.2395 86.7967 88.8598 87.5054 88.5996 88.3037C88.3494 89.0749 88.2507 89.9321 88.3035 90.8751C88.3662 91.791 88.671 92.795 89.2179 93.8871C89.7989 95.0532 90.4434 95.9191 91.1514 96.4848C91.8496 97.0776 92.5817 97.4519 93.3476 97.6074C94.1135 97.763 94.8801 97.7495 95.6473 97.5668C96.4145 97.3841 97.171 97.1052 97.9169 96.7299C99.6294 95.8751 101.389 94.5139 103.196 92.6464C103.195 92.9847 103.259 93.5622 103.388 94.3791C103.527 95.1689 103.754 96.0521 104.069 97.0289C104.393 97.9785 104.817 98.9488 105.34 99.9398C105.873 100.904 106.542 101.701 107.348 102.333C108.143 102.993 109.079 103.395 110.153 103.539C111.245 103.721 112.517 103.491 113.969 102.849C115.053 102.382 115.9 101.812 116.51 101.141C117.147 100.48 117.612 99.7872 117.906 99.0628C118.21 98.3112 118.365 97.5514 118.37 96.7835C118.385 95.9883 118.318 95.2095 118.169 94.447C117.806 92.6827 117.047 90.8356 115.891 88.9059C117.988 87.914 119.736 86.7949 121.134 85.5484C121.721 85.0231 122.256 84.4325 122.739 83.7766C123.248 83.1305 123.623 82.4355 123.863 81.6915C124.14 80.9301 124.246 80.1371 124.181 79.3126C124.125 78.4609 123.853 77.5766 123.364 76.6596C122.746 75.5109 122.065 74.6624 121.32 74.1141C120.585 73.5387 119.821 73.1682 119.028 73.0029C118.262 72.8473 117.477 72.8695 116.673 73.0696C115.879 73.2425 115.114 73.503 114.378 73.851Z" fill="white"/>
<path fill-rule="evenodd" clip-rule="evenodd" d="M263.658 53.6135C267.855 50.4544 272.653 48.0731 278.052 46.4707C282.592 44.9996 286.717 44.133 290.428 43.87C294.219 43.5778 297.632 43.74 300.666 44.3576C303.752 44.8661 306.51 45.7207 308.94 46.9206C311.371 48.1204 313.536 49.4621 315.435 50.9458C319.678 54.3864 323.1 58.8063 325.699 64.2046C327.461 68.5479 328.46 72.5349 328.693 76.1656C328.898 79.7164 328.583 82.9586 327.747 85.8913C326.882 88.7437 325.591 91.2978 323.874 93.5539C322.238 95.7809 320.405 97.7171 318.375 99.3622C313.661 103.344 307.735 106.362 300.598 108.416C302.316 111.144 303.583 113.629 304.399 115.869C305.214 118.11 305.688 120.158 305.819 122.014C305.951 123.869 305.835 125.543 305.472 127.035C305.079 128.447 304.548 129.727 303.879 130.877C302.308 133.533 299.954 135.659 296.819 137.253C292.272 139.452 288.132 140.279 284.399 139.735C280.666 139.19 277.471 138.133 274.815 136.562C271.693 134.707 268.905 132.278 266.452 129.273C262.34 123.701 259.128 118.117 256.82 112.522C254.592 106.898 252.956 101.783 251.915 97.1771C250.72 91.9021 249.987 86.7761 249.717 81.7992C249.621 78.2992 249.966 75.1374 250.751 72.3139C251.587 69.3813 252.634 66.7798 253.892 64.5092C255.201 62.1294 256.721 60.0806 258.453 58.3629C260.155 56.5651 261.89 54.982 263.658 53.6135ZM292.858 62.5761C291.984 62.6058 291.212 62.8 290.543 63.159C289.899 63.5088 289.349 63.9974 288.892 64.6255C288.426 65.2282 288.034 65.8768 287.715 66.5702C286.975 68.2253 286.521 70.2374 286.356 72.6071C284.592 71.0554 282.861 69.9098 281.164 69.1706C280.449 68.8535 279.693 68.6228 278.898 68.479C278.129 68.3262 277.355 68.3194 276.577 68.4581C275.816 68.5622 275.081 68.8582 274.373 69.3466C273.666 69.8351 273.016 70.5626 272.425 71.5284C271.786 72.598 271.4 73.576 271.266 74.4621C271.147 75.3136 271.205 76.1014 271.44 76.8244C271.674 77.5472 272.038 78.1943 272.532 78.7653C273.05 79.327 273.63 79.8234 274.273 80.2537C275.757 81.2723 277.661 82.0663 279.982 82.6362C278.806 84.5075 278.044 86.3002 277.697 88.0144C277.532 88.7384 277.449 89.4908 277.448 90.2709C277.462 91.0162 277.616 91.7543 277.91 92.4844C278.195 93.1887 278.641 93.8635 279.247 94.5087C279.844 95.1287 280.668 95.6661 281.719 96.1209C282.839 96.6082 283.823 96.8422 284.673 96.8217C285.532 96.8268 286.283 96.6546 286.927 96.3048C287.571 95.955 288.113 95.483 288.554 94.8896C288.995 94.2961 289.37 93.6398 289.68 92.9209C290.394 91.275 290.837 89.2365 291.009 86.8064C291.212 87.0501 291.607 87.4271 292.192 87.936C292.767 88.4193 293.464 88.9167 294.278 89.4286C295.083 89.9148 295.972 90.3562 296.945 90.7527C297.908 91.1238 298.869 91.2934 299.829 91.2618C300.798 91.2556 301.712 90.981 302.571 90.4374C303.464 89.9101 304.239 88.9785 304.896 87.6426C305.392 86.6535 305.657 85.7335 305.69 84.8841C305.749 84.0256 305.666 83.2478 305.441 82.5504C305.206 81.8274 304.859 81.1882 304.4 80.6335C303.932 80.0535 303.414 79.534 302.848 79.0763C301.524 78.0282 299.866 77.1596 297.873 76.4705C298.781 74.4942 299.362 72.6374 299.615 70.8998C299.721 70.1686 299.749 69.4213 299.7 68.6596C299.676 67.8888 299.526 67.1639 299.25 66.4849C298.991 65.7712 298.589 65.1378 298.046 64.5852C297.492 64.007 296.764 63.5362 295.86 63.1722C294.724 62.7195 293.723 62.521 292.858 62.5761Z" fill="white"/>
</svg>
