<svg width="131" height="39" viewBox="0 0 131 39" fill="none" xmlns="http://www.w3.org/2000/svg">
<path d="M128.941 13.8972H128.589L128.58 13.2636H128.941C129.218 13.2636 129.317 13.3802 129.317 13.5677C129.316 13.6133 129.305 13.6589 129.286 13.7045C129.267 13.7451 129.238 13.7856 129.203 13.816C129.168 13.8465 129.126 13.8667 129.081 13.8819C129.036 13.8971 128.989 13.9022 128.941 13.8972ZM129.682 13.5373C129.682 13.2383 129.504 12.9544 128.973 12.9544L128.245 12.9494V14.9716H128.571V14.186H128.986L129.388 14.9716H129.793L129.317 14.0897C129.426 14.0441 129.519 13.9681 129.583 13.8667C129.649 13.7704 129.683 13.6539 129.682 13.5373ZM127.525 14.9362C127.334 14.6574 127.231 14.333 127.227 13.9985C127.217 13.7755 127.254 13.5475 127.337 13.3397C127.419 13.1268 127.545 12.9342 127.706 12.777C127.867 12.6149 128.06 12.4882 128.272 12.4071C128.485 12.3209 128.713 12.2854 128.941 12.2905C129.279 12.2905 129.611 12.3868 129.892 12.5743C130.174 12.7568 130.393 13.0203 130.523 13.3295C130.654 13.6387 130.689 13.9783 130.624 14.3026C130.559 14.6321 130.398 14.9361 130.159 15.1693C129.922 15.4075 129.618 15.5697 129.286 15.6356C128.956 15.7065 128.611 15.6761 128.298 15.5494C127.984 15.4227 127.716 15.2098 127.525 14.9362ZM130.649 15.1287C130.877 14.7942 130.998 14.3989 130.999 13.9985C131.008 13.7299 130.961 13.4613 130.861 13.2129C130.761 12.9595 130.609 12.7314 130.416 12.5388C130.223 12.3513 129.993 12.1993 129.74 12.0979C129.486 12.0016 129.215 11.9509 128.941 11.9611C128.534 11.9611 128.134 12.0777 127.795 12.3007C127.455 12.5237 127.19 12.843 127.033 13.2129C126.877 13.5829 126.835 13.9934 126.913 14.3887C126.992 14.7841 127.188 15.1439 127.475 15.4328C127.763 15.7167 128.13 15.9093 128.53 15.9903C128.93 16.0714 129.345 16.0309 129.722 15.8738C130.1 15.7217 130.422 15.4632 130.649 15.1287ZM121.996 17.82L117.924 26.4005H116.166L112.148 17.896V26.8263H109.162V12.1435H112.139L117.139 22.7362L121.973 12.1435H124.978V26.8212H121.996V17.82ZM96.6535 21.5249L98.6846 15.6508L100.76 21.5249H96.6535ZM94.8234 26.8263L95.8055 23.9728H101.613L102.622 26.8212H105.997L100.26 12.1435H97.1354L91.556 26.8263H94.8234ZM81.9356 14.7892V18.0937H87.8997V20.7393H81.9356V24.1806H88.8546V26.8263H78.8197V12.1435H88.8546V14.7892H81.9356ZM70.8606 26.8313V14.7892H75.3736V12.1435H63.2229V14.7892H67.736V26.8313H70.8606ZM60.5175 13.3346L59.1784 15.6305C58.1115 14.9158 56.8587 14.5256 55.5714 14.5054C54.1923 14.5054 53.3396 15.0628 53.3396 16.0714C53.3396 17.1104 54.4239 17.4753 56.1247 18.043C56.4328 18.1494 56.7611 18.2609 57.1073 18.3826C59.5266 19.229 60.9151 20.2172 60.9151 22.4067C60.9151 25.397 58.5312 27.0746 55.1117 27.0746C53.2785 27.0848 51.475 26.6185 49.8801 25.7214L50.8442 23.1771C52.1109 23.8411 53.5178 24.1958 54.9509 24.2212C56.759 24.2212 57.6297 23.5674 57.6297 22.5943C57.6297 21.5603 56.5068 21.1954 54.6587 20.5974C54.5123 20.5517 54.3613 20.5011 54.2056 20.4504C51.7904 19.6598 50.121 18.6157 50.121 16.1931C50.121 13.4664 52.3528 11.9003 55.5226 11.9003C57.2989 11.8496 59.0464 12.3513 60.5175 13.3346ZM23.1266 12.4223C22.7172 13.0254 22.4984 13.74 22.4984 14.4648L22.4763 14.4547C22.4747 14.9412 22.5713 15.4227 22.7593 15.8738C22.9478 16.3198 23.2242 16.7303 23.5724 17.0699C23.9212 17.4145 24.3352 17.6831 24.7903 17.8706C25.2459 18.0531 25.7339 18.1444 26.226 18.1444C26.9631 18.1444 27.6838 17.9264 28.2966 17.526C28.9099 17.1206 29.3876 16.5428 29.6696 15.8738C29.9516 15.1997 30.0255 14.4597 29.8817 13.7502C29.7379 13.0355 29.383 12.3817 28.8616 11.8648C28.3402 11.3529 27.6761 10.9981 26.9528 10.8562C26.2301 10.7143 25.4807 10.7903 24.7996 11.069C24.1184 11.3478 23.5359 11.8191 23.1266 12.4223ZM30.3461 11.7432C30.8911 12.549 31.1818 13.4967 31.1808 14.4648C31.1787 15.7622 30.6553 17.004 29.7256 17.9213C28.7958 18.8387 27.5358 19.3557 26.2214 19.3607C25.2392 19.3607 24.2787 19.0718 23.462 18.5346C22.6447 17.9974 22.0078 17.232 21.6318 16.34C21.2553 15.4429 21.1567 14.4597 21.3483 13.5069C21.5393 12.5541 22.0124 11.6823 22.7069 10.9981C23.4014 10.3139 24.2864 9.84762 25.2495 9.65502C26.2132 9.4675 27.2112 9.56378 28.1188 9.93883C29.026 10.3088 29.8011 10.9373 30.3461 11.7432ZM12.3787 29.5682L9.95013 28.5799C10.302 29.2995 10.8603 29.9078 11.5558 30.3234C12.2513 30.739 13.0547 30.9467 13.8678 30.9214C14.6809 30.8961 15.4689 30.6376 16.1351 30.1764C16.8008 29.7151 17.3171 29.0715 17.6196 28.3264C17.9221 27.5814 17.9987 26.7654 17.8394 25.9798C17.6802 25.1892 17.2919 24.4644 16.7228 23.8917C16.1536 23.319 15.4273 22.9237 14.6327 22.7514C13.8385 22.574 13.01 22.6348 12.2493 22.9187L14.7534 23.9424C15.51 24.2516 16.1105 24.8446 16.4228 25.5947C16.7346 26.3397 16.7335 27.181 16.4181 27.9261C16.1033 28.6711 15.5007 29.2641 14.7431 29.5733C13.9854 29.8824 13.1348 29.8773 12.3787 29.5682ZM19.6814 0C14.719 0 9.93831 1.84484 6.29132 5.16962C2.64433 8.48933 0.398087 13.0406 0 17.9213L10.584 22.2445C11.5101 21.6161 12.6078 21.2816 13.7312 21.2816H14.0435L18.7486 14.556V14.4547C18.7538 13.0051 19.1955 11.586 20.0174 10.3798C20.8392 9.17353 22.0042 8.23589 23.3664 7.68345C24.7282 7.13101 26.2255 6.9891 27.6689 7.27799C29.1123 7.56182 30.4375 8.26629 31.4766 9.29515C32.5158 10.324 33.2226 11.6317 33.5082 13.0609C33.7932 14.4851 33.6443 15.9599 33.0798 17.303C32.5147 18.6461 31.5599 19.7915 30.3353 20.5974C29.1107 21.4032 27.6714 21.834 26.1988 21.834H26.0293L19.3332 26.5627V26.8212C19.3368 28.1896 18.8231 29.5124 17.8924 30.5311C16.9616 31.5448 15.68 32.1834 14.2983 32.3203C12.9165 32.4571 11.5327 32.082 10.417 31.266C9.30138 30.45 8.53345 29.254 8.26275 27.9109L0.696527 24.8243C1.69765 28.3113 3.66549 31.4586 6.37865 33.9015C9.09129 36.3444 12.4414 37.9967 16.0524 38.6657C19.6635 39.3347 23.3921 38.9951 26.8188 37.6875C30.2459 36.3799 33.2349 34.1549 35.4508 31.266C37.6663 28.3721 39.0203 24.9307 39.3608 21.3171C39.7009 17.7085 39.0141 14.0746 37.3771 10.8309C35.74 7.58719 33.2179 4.85537 30.0939 2.94464C26.9703 1.03897 23.369 0.025341 19.6948 0.025341L19.6814 0Z" fill="white"/>
</svg>
