<svg width="400" height="400" viewBox="0 0 400 400" fill="none" xmlns="http://www.w3.org/2000/svg">
<rect width="400" height="400" rx="200" fill="#FFEC1C"/>
<g filter="url(#filter0_d_27_7)">
<path d="M178.551 191.296C181.331 191.45 183.803 192.183 185.965 193.493C187.819 194.573 189.518 196.308 191.062 198.698C192.684 201.089 193.495 204.482 193.495 208.877C193.495 212.193 193.457 215.354 193.379 218.361C193.302 221.292 193.379 223.913 193.611 226.227C193.843 228.463 194.267 230.275 194.885 231.663C195.58 232.974 196.623 233.629 198.013 233.629C199.403 233.629 200.407 232.974 201.025 231.663C201.72 230.275 202.184 228.463 202.415 226.227C202.647 223.913 202.724 221.292 202.647 218.361C202.57 215.354 202.492 212.193 202.415 208.877C202.338 206.718 202.492 204.829 202.879 203.209C203.342 201.513 203.96 200.048 204.732 198.814C205.504 197.58 206.354 196.578 207.281 195.807C208.285 194.958 209.289 194.303 210.293 193.84C212.687 192.684 215.429 192.105 218.518 192.105C222.456 191.874 225.623 192.414 228.017 193.725C230.488 195.036 232.419 196.501 233.809 198.12C235.354 200.125 236.512 202.361 237.285 204.829C238.598 210.689 239.254 216.357 239.254 221.831C239.331 227.229 239.1 232.048 238.559 236.289C237.941 241.224 237.053 245.89 235.895 250.285C234.273 254.989 231.879 259.191 228.712 262.892C227.322 264.435 225.7 265.977 223.847 267.519C222.07 268.984 219.947 270.295 217.475 271.452C215.081 272.608 212.339 273.534 209.25 274.228C206.238 274.922 202.879 275.269 199.172 275.269C196.005 275.269 193.109 274.999 190.483 274.459C187.935 273.996 185.579 273.379 183.417 272.608C181.254 271.837 179.323 270.95 177.624 269.948C175.925 268.946 174.419 267.943 173.106 266.941C170.017 264.55 167.584 261.851 165.808 258.844C164.341 256.377 163.144 253.793 162.217 251.095C161.29 248.319 160.518 245.543 159.9 242.767C159.359 239.914 158.935 237.138 158.626 234.439C158.394 231.663 158.278 229.003 158.278 226.458C158.201 220.52 158.587 214.66 159.437 208.877C160.363 204.019 161.869 200.395 163.955 198.004C166.04 195.537 168.164 193.802 170.326 192.799C172.875 191.643 175.616 191.142 178.551 191.296Z" fill="#DE2C00"/>
<path d="M178.146 185.276L178.866 185.304L178.875 185.305H178.884C182.51 185.506 185.921 186.475 188.984 188.311L188.985 188.309C189.004 188.319 189.021 188.331 189.039 188.342C189.051 188.349 189.063 188.355 189.075 188.362L189.074 188.363C191.887 190.025 194.164 192.474 196.027 195.33L196.263 195.687C196.94 196.744 197.493 197.873 197.938 199.061C198.409 197.857 198.972 196.708 199.646 195.631C200.681 193.979 201.919 192.471 203.408 191.225V191.224C203.415 191.218 203.422 191.213 203.429 191.207C203.434 191.203 203.438 191.198 203.443 191.194V191.195C204.747 190.098 206.158 189.155 207.683 188.439V188.438C210.963 186.853 214.562 186.13 218.347 186.108C222.842 185.866 227.162 186.441 230.827 188.425L230.828 188.424C233.583 189.885 236.033 191.642 237.979 193.779L238.362 194.212L238.466 194.332L238.562 194.458C240.549 197.036 242.032 199.908 243.011 203.036L243.085 203.274L243.14 203.517C244.533 209.736 245.246 215.816 245.253 221.745C245.333 227.35 245.095 232.455 244.512 237.034C243.864 242.209 242.929 247.139 241.696 251.814L241.64 252.03L241.566 252.24C239.704 257.641 236.938 262.507 233.271 266.793L233.221 266.852L233.169 266.909C231.559 268.695 229.724 270.434 227.685 272.131L227.675 272.14L227.664 272.147C225.452 273.972 222.904 275.528 220.084 276.854L220.085 276.854C217.208 278.244 214.02 279.306 210.565 280.082L210.564 280.081C207.043 280.889 203.233 281.269 199.172 281.269C195.693 281.269 192.406 280.974 189.336 280.348C186.535 279.835 183.885 279.145 181.401 278.26C178.937 277.381 176.651 276.34 174.575 275.115C172.709 274.014 170.999 272.881 169.465 271.71L169.45 271.698L169.435 271.686C165.816 268.885 162.847 265.63 160.642 261.896V261.895C158.969 259.08 157.601 256.128 156.542 253.043L156.534 253.019L156.525 252.994C155.535 250.028 154.707 247.053 154.043 244.07L154.022 243.978L154.005 243.884C153.439 240.896 152.992 237.975 152.665 235.121L152.654 235.029L152.646 234.938C152.405 232.039 152.281 229.238 152.278 226.536L152.27 225.365C152.25 219.514 152.66 213.726 153.5 208.005L153.519 207.878L153.543 207.753C154.56 202.419 156.339 197.646 159.372 194.132L159.837 193.592C162.181 190.926 164.818 188.739 167.803 187.355L167.824 187.346L167.847 187.336C171.098 185.86 174.558 185.188 178.146 185.276Z" stroke="black" stroke-width="12"/>
</g>
<g filter="url(#filter1_d_27_7)">
<path fill-rule="evenodd" clip-rule="evenodd" d="M92.5879 230.856C113.347 238.412 136.301 227.708 143.856 206.949C151.412 186.19 140.709 163.237 119.95 155.681C99.1904 148.125 76.2367 158.829 68.681 179.588C61.1253 200.347 71.8288 223.301 92.5879 230.856ZM114.379 182.851C112.639 183.696 110.889 185.03 109.129 186.853C108.751 184.375 108.123 182.252 107.243 180.485C106.876 179.735 106.417 179.029 105.866 178.367C105.342 177.714 104.714 177.178 103.984 176.758C103.29 176.321 102.486 176.059 101.573 175.973C100.66 175.887 99.631 176.036 98.4859 176.42C97.2304 176.856 96.244 177.39 95.5265 178.022C94.8459 178.636 94.3535 179.319 94.0495 180.071C93.7455 180.823 93.5993 181.601 93.611 182.406C93.6496 183.221 93.7837 184.024 94.0134 184.816C94.5281 186.666 95.5383 188.62 97.0441 190.677C94.8006 191.4 92.9494 192.343 91.4903 193.506C90.8592 193.984 90.2755 194.542 89.7392 195.178C89.2398 195.797 88.86 196.505 88.5999 197.304C88.3497 198.075 88.251 198.932 88.3037 199.875C88.3664 200.791 88.6713 201.795 89.2182 202.887C89.7991 204.053 90.4436 204.919 91.1517 205.485C91.8499 206.078 92.5819 206.452 93.3478 206.607C94.1138 206.763 94.8803 206.749 95.6475 206.567C96.4147 206.384 97.1713 206.105 97.9171 205.73C99.6297 204.875 101.389 203.514 103.196 201.646C103.195 201.985 103.259 202.562 103.388 203.379C103.527 204.169 103.754 205.052 104.069 206.029C104.394 206.979 104.817 207.949 105.34 208.94C105.873 209.904 106.542 210.701 107.348 211.333C108.144 211.993 109.079 212.395 110.153 212.539C111.245 212.721 112.517 212.491 113.969 211.849C115.053 211.382 115.9 210.812 116.51 210.141C117.147 209.48 117.612 208.787 117.906 208.063C118.21 207.311 118.365 206.551 118.37 205.783C118.386 204.988 118.319 204.21 118.17 203.447C117.807 201.683 117.047 199.836 115.891 197.906C117.988 196.914 119.736 195.795 121.134 194.548C121.722 194.023 122.256 193.432 122.739 192.777C123.248 192.131 123.623 191.435 123.863 190.691C124.141 189.93 124.246 189.137 124.181 188.313C124.125 187.461 123.853 186.577 123.364 185.66C122.747 184.511 122.065 183.662 121.32 183.114C120.585 182.539 119.821 182.168 119.029 182.003C118.263 181.847 117.478 181.87 116.674 182.07C115.88 182.243 115.115 182.503 114.379 182.851Z" fill="white"/>
<path d="M122.002 150.043C145.875 158.732 158.184 185.128 149.495 209.001C140.806 232.874 114.409 245.183 90.5358 236.494C66.6628 227.805 54.3538 201.409 63.0429 177.536C71.7319 153.663 98.1287 141.354 122.002 150.043ZM98.8847 196.387C97.1566 196.944 95.9953 197.587 95.2297 198.197L95.1725 198.243L95.1151 198.287C94.8763 198.468 94.6353 198.692 94.3924 198.97C94.3724 199 94.3408 199.054 94.3073 199.156L94.2984 199.212C94.2925 199.263 94.2892 199.345 94.2929 199.466C94.3052 199.522 94.348 199.693 94.4831 199.992L94.5827 200.2L94.5889 200.212C94.6597 200.354 94.7239 200.471 94.7795 200.565C94.92 200.511 95.0671 200.447 95.2204 200.37L95.2291 200.366L95.237 200.362C96.1675 199.897 97.392 199.016 98.884 197.474L100.412 195.894L98.8847 196.387ZM109.197 201.562C109.199 201.585 109.201 201.622 109.207 201.673C109.225 201.83 109.256 202.062 109.306 202.382C109.385 202.821 109.528 203.397 109.761 204.126C109.966 204.721 110.246 205.371 110.616 206.078C110.755 206.32 110.884 206.466 110.994 206.562C111.112 206.529 111.295 206.472 111.544 206.362L111.568 206.35L111.592 206.341C111.921 206.199 112.067 206.094 112.105 206.066L112.128 206.042L112.188 205.98C112.285 205.879 112.334 205.812 112.354 205.781C112.365 205.751 112.37 205.735 112.371 205.732L112.37 205.705L112.371 205.669C112.378 205.297 112.347 204.951 112.285 204.622C112.083 203.666 111.625 202.46 110.744 200.989L109.208 198.427L109.197 201.562ZM117.756 187.98C117.488 188.05 117.23 188.143 116.976 188.26C116.035 188.722 114.848 189.568 113.445 191.021L110.95 193.605L113.326 192.481C115.023 191.679 116.26 190.856 117.142 190.07C117.407 189.831 117.663 189.552 117.906 189.221L117.965 189.141L118.027 189.062C118.119 188.945 118.144 188.879 118.154 188.847L118.188 188.743L118.188 188.742C118.171 188.694 118.137 188.609 118.071 188.486C117.939 188.24 117.829 188.079 117.756 187.98ZM100.987 181.956C100.896 181.968 100.713 182.004 100.424 182.099C100.065 182.225 99.818 182.338 99.6604 182.424C99.6506 182.429 99.6417 182.435 99.6328 182.44C99.6508 182.588 99.6747 182.737 99.7089 182.887L99.7763 183.144L99.7847 183.176L99.7937 183.208C100.063 184.175 100.675 185.479 101.885 187.133L103.423 189.232L103.198 187.757C102.89 185.737 102.411 184.242 101.871 183.159L101.862 183.141L101.854 183.123C101.704 182.816 101.508 182.51 101.253 182.203L101.219 182.164L101.187 182.123C101.135 182.057 101.081 182.01 100.994 181.96L100.987 181.956Z" stroke="black" stroke-width="12"/>
</g>
<g filter="url(#filter2_d_27_7)">
<path fill-rule="evenodd" clip-rule="evenodd" d="M263.658 162.614C267.855 159.454 272.653 157.073 278.052 155.471C282.592 154 286.717 153.133 290.428 152.87C294.219 152.578 297.632 152.74 300.666 153.358C303.752 153.866 306.51 154.721 308.941 155.921C311.371 157.12 313.536 158.462 315.435 159.946C319.679 163.386 323.1 167.806 325.7 173.205C327.462 177.548 328.46 181.535 328.694 185.166C328.899 188.716 328.583 191.959 327.747 194.891C326.882 197.744 325.591 200.298 323.875 202.554C322.238 204.781 320.405 206.717 318.375 208.362C313.661 212.344 307.736 215.362 300.598 217.416C302.316 220.144 303.583 222.629 304.399 224.869C305.214 227.11 305.688 229.158 305.819 231.014C305.951 232.869 305.835 234.543 305.472 236.035C305.079 237.447 304.548 238.727 303.879 239.877C302.308 242.533 299.955 244.659 296.819 246.253C292.272 248.452 288.132 249.279 284.399 248.735C280.666 248.19 277.471 247.133 274.815 245.562C271.693 243.707 268.906 241.278 266.453 238.273C262.34 232.701 259.129 227.117 256.82 221.522C254.592 215.898 252.957 210.783 251.915 206.177C250.72 200.902 249.988 195.776 249.717 190.799C249.621 187.299 249.966 184.137 250.751 181.314C251.587 178.381 252.634 175.78 253.892 173.509C255.201 171.129 256.721 169.081 258.453 167.363C260.155 165.565 261.89 163.982 263.658 162.614ZM292.858 171.576C291.984 171.606 291.212 171.8 290.543 172.159C289.899 172.509 289.349 172.997 288.892 173.625C288.426 174.228 288.034 174.877 287.715 175.57C286.975 177.225 286.522 179.237 286.356 181.607C284.592 180.055 282.861 178.91 281.164 178.171C280.449 177.854 279.694 177.623 278.899 177.479C278.129 177.326 277.355 177.319 276.578 177.458C275.816 177.562 275.081 177.858 274.374 178.347C273.666 178.835 273.016 179.563 272.425 180.528C271.786 181.598 271.4 182.576 271.266 183.462C271.147 184.314 271.205 185.101 271.44 185.824C271.674 186.547 272.038 187.194 272.532 187.765C273.05 188.327 273.631 188.823 274.273 189.254C275.757 190.272 277.661 191.066 279.982 191.636C278.806 193.508 278.044 195.3 277.697 197.014C277.532 197.738 277.45 198.491 277.448 199.271C277.462 200.016 277.616 200.754 277.911 201.484C278.196 202.189 278.641 202.863 279.247 203.509C279.844 204.129 280.668 204.666 281.719 205.121C282.839 205.608 283.824 205.842 284.673 205.822C285.532 205.827 286.283 205.655 286.927 205.305C287.571 204.955 288.113 204.483 288.554 203.89C288.995 203.296 289.37 202.64 289.68 201.921C290.395 200.275 290.837 198.236 291.01 195.806C291.213 196.05 291.607 196.427 292.192 196.936C292.768 197.419 293.464 197.917 294.278 198.429C295.084 198.915 295.972 199.356 296.945 199.753C297.908 200.124 298.87 200.293 299.829 200.262C300.798 200.256 301.712 199.981 302.571 199.437C303.464 198.91 304.24 197.979 304.896 196.643C305.393 195.653 305.657 194.734 305.691 193.884C305.749 193.026 305.666 192.248 305.441 191.55C305.206 190.827 304.859 190.188 304.4 189.634C303.932 189.053 303.415 188.534 302.848 188.076C301.524 187.028 299.866 186.16 297.873 185.47C298.781 183.494 299.363 181.637 299.616 179.9C299.721 179.169 299.749 178.421 299.7 177.66C299.677 176.889 299.526 176.164 299.251 175.485C298.991 174.771 298.59 174.138 298.046 173.585C297.493 173.007 296.764 172.536 295.86 172.172C294.725 171.719 293.724 171.521 292.858 171.576Z" fill="white"/>
<path d="M260.049 157.819C264.839 154.214 270.268 151.532 276.275 149.741C281.128 148.173 285.716 147.189 290.004 146.885L290.003 146.886C294.164 146.568 298.093 146.727 301.734 147.453C305.281 148.045 308.587 149.055 311.596 150.54C314.177 151.814 316.554 153.259 318.702 154.889L319.129 155.218L319.172 155.251L319.215 155.285C324.054 159.209 327.912 164.163 330.827 170.031L331.106 170.602L331.188 170.773L331.259 170.949C333.197 175.726 334.396 180.352 334.682 184.78L334.684 184.821C334.921 188.933 334.565 192.86 333.517 196.537L333.503 196.584L333.489 196.633C332.427 200.133 330.82 203.334 328.65 206.186C326.766 208.737 324.633 210.997 322.245 212.946L322.247 212.946C318.473 216.134 314.106 218.724 309.208 220.76C309.513 221.453 309.79 222.138 310.037 222.817C310.992 225.443 311.624 228.047 311.805 230.59C311.971 232.937 311.839 235.248 311.301 237.455L311.278 237.55L311.253 237.642C310.737 239.499 310.016 241.261 309.066 242.894L309.044 242.931C306.814 246.701 303.545 249.565 299.539 251.602L299.431 251.655C294.163 254.203 288.794 255.44 283.533 254.672C279.195 254.039 275.221 252.772 271.761 250.726L271.751 250.721C267.985 248.484 264.671 245.579 261.805 242.068L261.713 241.954L261.625 241.836C257.263 235.926 253.794 229.917 251.274 223.81L251.258 223.771L251.243 223.732C248.93 217.896 247.188 212.479 246.062 207.501C244.799 201.925 244.016 196.464 243.726 191.125L243.721 191.044L243.719 190.963C243.61 186.978 243.998 183.206 244.971 179.707L244.975 179.688L244.981 179.67C245.919 176.378 247.125 173.346 248.635 170.617C250.171 167.824 252.002 165.328 254.151 163.18C256.026 161.205 257.97 159.429 259.985 157.869L260.017 157.845L260.049 157.819ZM285.063 194.827C284.174 196.242 283.749 197.362 283.578 198.206L283.563 198.276L283.547 198.347C283.493 198.584 283.458 198.855 283.45 199.168C283.453 199.178 283.459 199.193 283.466 199.215C283.48 199.235 283.509 199.272 283.554 199.325C283.564 199.332 283.576 199.341 283.591 199.35C283.634 199.379 283.695 199.417 283.78 199.461L284.102 199.614L284.114 199.619C284.12 199.622 284.126 199.625 284.132 199.627L284.173 199.54L284.176 199.531C284.542 198.688 284.885 197.363 285.025 195.382L285.064 194.824L285.063 194.827ZM295.545 191.878C295.558 191.891 295.577 191.91 295.603 191.934C295.703 192.03 295.858 192.171 296.078 192.363C296.384 192.617 296.822 192.938 297.426 193.319C297.908 193.607 298.475 193.891 299.139 194.165C299.233 194.2 299.314 194.223 299.382 194.238C299.42 194.172 299.464 194.093 299.511 193.998L299.522 193.974L299.534 193.95C299.638 193.743 299.682 193.612 299.699 193.555L299.705 193.475C299.708 193.433 299.705 193.398 299.705 193.371C299.512 193.136 299.312 192.937 299.103 192.765C298.421 192.23 297.404 191.657 295.912 191.141L294.536 190.665L295.545 191.878ZM293.391 177.655C293.314 177.781 293.243 177.912 293.179 178.049C292.805 178.899 292.471 180.175 292.341 182.026L292.249 183.336L292.421 182.964C293.145 181.389 293.525 180.088 293.679 179.035C293.722 178.73 293.735 178.402 293.712 178.043L293.706 177.943L293.703 177.843C293.702 177.81 293.698 177.787 293.696 177.772C293.674 177.762 293.65 177.75 293.622 177.739C293.535 177.705 293.458 177.678 293.391 177.655ZM277.742 183.366C277.692 183.433 277.628 183.523 277.554 183.644C277.457 183.808 277.385 183.946 277.331 184.059C277.363 184.085 277.395 184.112 277.428 184.137L277.613 184.27L277.641 184.288L277.667 184.306C278.395 184.806 279.576 185.358 281.413 185.809L282.289 186.024C280.917 184.831 279.74 184.095 278.768 183.671L278.75 183.664L278.732 183.655C278.467 183.538 278.171 183.445 277.831 183.384L277.78 183.374L277.742 183.366Z" stroke="black" stroke-width="12"/>
</g>
<defs>
<filter id="filter0_d_27_7" x="142.269" y="179.269" width="113" height="120" filterUnits="userSpaceOnUse" color-interpolation-filters="sRGB">
<feFlood flood-opacity="0" result="BackgroundImageFix"/>
<feColorMatrix in="SourceAlpha" type="matrix" values="0 0 0 0 0 0 0 0 0 0 0 0 0 0 0 0 0 0 127 0" result="hardAlpha"/>
<feOffset dy="8"/>
<feGaussianBlur stdDeviation="2"/>
<feComposite in2="hardAlpha" operator="out"/>
<feColorMatrix type="matrix" values="0 0 0 0 0 0 0 0 0 0 0 0 0 0 0 0 0 0 0.25 0"/>
<feBlend mode="normal" in2="BackgroundImageFix" result="effect1_dropShadow_27_7"/>
<feBlend mode="normal" in="SourceGraphic" in2="effect1_dropShadow_27_7" result="shape"/>
</filter>
<filter id="filter1_d_27_7" x="50.2545" y="141.254" width="112.028" height="116.028" filterUnits="userSpaceOnUse" color-interpolation-filters="sRGB">
<feFlood flood-opacity="0" result="BackgroundImageFix"/>
<feColorMatrix in="SourceAlpha" type="matrix" values="0 0 0 0 0 0 0 0 0 0 0 0 0 0 0 0 0 0 127 0" result="hardAlpha"/>
<feOffset dy="8"/>
<feGaussianBlur stdDeviation="2"/>
<feComposite in2="hardAlpha" operator="out"/>
<feColorMatrix type="matrix" values="0 0 0 0 0 0 0 0 0 0 0 0 0 0 0 0 0 0 0.25 0"/>
<feBlend mode="normal" in2="BackgroundImageFix" result="effect1_dropShadow_27_7"/>
<feBlend mode="normal" in="SourceGraphic" in2="effect1_dropShadow_27_7" result="shape"/>
</filter>
<filter id="filter2_d_27_7" x="233.701" y="140.729" width="111.053" height="132.169" filterUnits="userSpaceOnUse" color-interpolation-filters="sRGB">
<feFlood flood-opacity="0" result="BackgroundImageFix"/>
<feColorMatrix in="SourceAlpha" type="matrix" values="0 0 0 0 0 0 0 0 0 0 0 0 0 0 0 0 0 0 127 0" result="hardAlpha"/>
<feOffset dy="8"/>
<feGaussianBlur stdDeviation="2"/>
<feComposite in2="hardAlpha" operator="out"/>
<feColorMatrix type="matrix" values="0 0 0 0 0 0 0 0 0 0 0 0 0 0 0 0 0 0 0.25 0"/>
<feBlend mode="normal" in2="BackgroundImageFix" result="effect1_dropShadow_27_7"/>
<feBlend mode="normal" in="SourceGraphic" in2="effect1_dropShadow_27_7" result="shape"/>
</filter>
</defs>
</svg>
